<svg viewBox="0 0 16 16" xmlns="http://www.w3.org/2000/svg">
	<path fill-rule="evenodd" clip-rule="evenodd" d="M1.21799 2.09202C1 2.51984 1 3.0799 1 4.2V11.8C1 12.9201 1 13.4802 1.21799 13.908C1.40973 14.2843 1.71569 14.5903 2.09202 14.782C2.51984 15 3.0799 15 4.2 15H11.8C12.9201 15 13.4802 15 13.908 14.782C14.2843 14.5903 14.5903 14.2843 14.782 13.908C15 13.4802 15 12.9201 15 11.8V4.2C15 3.0799 15 2.51984 14.782 2.09202C14.5903 1.71569 14.2843 1.40973 13.908 1.21799C13.4802 1 12.9201 1 11.8 1H4.2C3.0799 1 2.51984 1 2.09202 1.21799C1.71569 1.40973 1.40973 1.71569 1.21799 2.09202ZM3 6.5C3 6.22386 3.22733 6.00641 3.49494 5.93829C4.10407 5.78321 4.60153 5.34855 4.84262 4.77899C4.99939 4.40861 5.07778 4.22342 5.13834 4.15862C5.21043 4.08147 5.23254 4.06682 5.33169 4.0305C5.41497 4 5.54331 4 5.8 4H6.2C6.48003 4 6.62004 4 6.727 4.0545C6.82108 4.10243 6.89757 4.17892 6.9455 4.273C7 4.37996 7 4.51997 7 4.8V11.2C7 11.48 7 11.62 6.9455 11.727C6.89757 11.8211 6.82108 11.8976 6.727 11.9455C6.62004 12 6.48003 12 6.2 12H5.8C5.51997 12 5.37996 12 5.273 11.9455C5.17892 11.8976 5.10243 11.8211 5.0545 11.727C5 11.62 5 11.48 5 11.2V7.8C5 7.51997 5 7.37996 4.9455 7.273C4.89757 7.17892 4.82108 7.10243 4.727 7.0545C4.62004 7 4.48003 7 4.2 7H3.5C3.22386 7 3 6.77614 3 6.5ZM8 6.5C8 6.22386 8.22733 6.00641 8.49494 5.93829C9.10407 5.78321 9.60153 5.34855 9.84262 4.77899L9.84263 4.77896C9.9994 4.4086 10.0778 4.22342 10.1383 4.15862C10.2104 4.08147 10.2325 4.06682 10.3317 4.0305C10.415 4 10.5433 4 10.8 4H11.2C11.48 4 11.62 4 11.727 4.0545C11.8211 4.10243 11.8976 4.17892 11.9455 4.273C12 4.37996 12 4.51997 12 4.8V11.2C12 11.48 12 11.62 11.9455 11.727C11.8976 11.8211 11.8211 11.8976 11.727 11.9455C11.62 12 11.48 12 11.2 12H10.8C10.52 12 10.38 12 10.273 11.9455C10.1789 11.8976 10.1024 11.8211 10.0545 11.727C10 11.62 10 11.48 10 11.2V7.8C10 7.51997 10 7.37996 9.9455 7.273C9.89757 7.17892 9.82108 7.10243 9.727 7.0545C9.62004 7 9.48003 7 9.2 7H8.5C8.22386 7 8 6.77614 8 6.5Z" fill="black" />
</svg>
